<svg width="17" height="17" viewBox="0 0 17 17" fill="none" xmlns="http://www.w3.org/2000/svg">
<path d="M3.09613 13.6C3.13863 13.6 3.18113 13.5957 3.22363 13.5894L6.79787 12.9625C6.84037 12.954 6.88075 12.9349 6.9105 12.903L15.9184 3.89512C15.9381 3.87547 15.9537 3.85211 15.9644 3.82641C15.975 3.8007 15.9805 3.77314 15.9805 3.74531C15.9805 3.71748 15.975 3.68992 15.9644 3.66422C15.9537 3.63851 15.9381 3.61516 15.9184 3.5955L12.3866 0.061625C12.3463 0.02125 12.2931 0 12.2358 0C12.1784 0 12.1253 0.02125 12.0849 0.061625L3.077 9.0695C3.04512 9.10137 3.026 9.13962 3.0175 9.18212L2.39062 12.7564C2.36995 12.8702 2.37734 12.9874 2.41214 13.0977C2.44695 13.2081 2.50813 13.3083 2.59037 13.3896C2.73062 13.5256 2.907 13.6 3.09613 13.6ZM4.52838 9.894L12.2358 2.18875L13.7934 3.74637L6.086 11.4516L4.19688 11.7852L4.52838 9.894ZM16.32 15.385H0.68C0.303875 15.385 0 15.6889 0 16.065V16.83C0 16.9235 0.0765 17 0.17 17H16.83C16.9235 17 17 16.9235 17 16.83V16.065C17 15.6889 16.6961 15.385 16.32 15.385Z" fill="#B6B6B6"/>
</svg>
