<svg width="77" height="77" viewBox="0 0 77 77" fill="none" xmlns="http://www.w3.org/2000/svg">
<path d="M0 10C0 4.47715 4.47715 0 10 0H67C72.5228 0 77 4.47715 77 10V67C77 72.5228 72.5228 77 67 77H10C4.47715 77 0 72.5228 0 67V10Z" fill="white"/>
<path d="M49 0H67C72.5228 0 77 4.47715 77 10V67C77 72.5228 72.5228 77 67 77H49V0Z" fill="#7DE3B2"/>
<path d="M0 10C0 4.47715 4.47715 0 10 0H31V0C31 17.1208 17.1208 31 0 31V31V10Z" fill="#2A2F5B"/>
<path d="M10 77C4.47715 77 0 72.5228 0 67L0 46V46C17.1208 46 31 59.8792 31 77V77H10Z" fill="#D05151"/>
</svg>
